{"title":"The Green Hornet 2011 R5 LiNE AC3 XViD-T0XiCiNK (BX)","uid":6202255,"size":1940593347,"categoryP":"video","categoryS":"movies","magnet":"?xt=urn:btih:cd8205495ae7cd7d3585f02f817bd6ca6580b1bf&amp;dn=The+Green+Hornet+2011+R5+LiNE+AC3+XViD-T0XiCiNK+%28BX%29&amp;tr=udp%3A%2F%2Ftracker.openbittorrent.com%3A80&amp;tr=udp%3A%2F%2Fopen.demonii.com%3A1337&amp;tr=udp%3A%2F%2Ftracker.coppersurfer.tk%3A6969&amp;tr=udp%3A%2F%2Fexodus.desync.com%3A6969","seeders":1,"leechers":0,"uploader":"Kill3rK","files":3,"time":1298661168,"description":"                        Clean Scene Releases and no fakes\n    \n\n                              &lt;a href=&quot; http://bitxtre.me/&quot; rel=&quot;nofollow&quot; target=&quot;_NEW&quot;&gt; http://bitxtre.me/&lt;/a&gt;\n\n\n-----------------------------------------------------------------------------------\n\n::::::::::::::Enjoy:Another:Release:From:T0XiCiNK::::::::::::::\n\nFile:: The.Green.Hornet.2011.R5.LiNE.AC3.XViD-T0XiCiNK\nVideo Source:: ....ELEKTRI4KA\nAudio Source:: ....Own\nLanguage::English\nIMDB::http://www.imdb.com/title/tt0990407/\n\nFollowing the death of his father, Britt Reid, heir to his father\\'s large company, \nteams up with his late dad\\'s assistant Kato to become a masked crime fighting team.\n\nSpecs::\n\nGeneral\n\nFormat                           : AVI\nFormat/Info                      : Audio Video Interleave\nFile size                        : 1.79 GiB\nDuration                         : 1h 54mn\nOverall bit rate                 : 2 245 Kbps\nWriting application              : VirtualDubMod 1.5.10.2 (build 2540/release)\nWriting library                  : VirtualDubMod build 2540/release\n\nVideo\nID                               : 0\nFormat                           : MPEG-4 Visual\nFormat profile                   : Advanced Simple@L5\nFormat settings, BVOP            : 2\nFormat settings, QPel            : No\nFormat settings, GMC             : No warppoints\nFormat settings, Matrix          : Custom\nCodec ID                         : XVID\nCodec ID/Hint                    : XviD\nDuration                         : 1h 54mn\nBit rate                         : 1 787 Kbps\nWidth                            : 720 pixels\nHeight                           : 304 pixels\nDisplay aspect ratio             : 2.35:1\nFrame rate                       : 25.000 fps\nColor space                      : YUV\nChroma subsampling               : 4:2:0\nBit depth                        : 8 bits\nScan type                        : Progressive\nCompression mode                 : Lossy\nBits/(Pixel*Frame)               : 0.327\nStream size                      : 1.42 GiB (80%)\nWriting library                  : XviD 58\n\nAudio\nID                               : 1\nFormat                           : AC-3\nFormat/Info                      : Audio Coding 3\nMode extension                   : CM (complete main)\nCodec ID                         : 2000\nDuration                         : 1h 54mn\nBit rate mode                    : Constant\nBit rate                         : 448 Kbps\nChannel(s)                       : 6 channels\nChannel positions                : Front: L C R, Side: L R, LFE\nSampling rate                    : 48.0 KHz\nBit depth                        : 16 bits\nCompression mode                 : Lossy\nStream size                      : 366 MiB (20%)\nAlignment                        : Split accross interleaves\nInterleave, duration             : 40 ms (1.00 video frame)\nInterleave, preload duration     : 500 ms\n\n\nNOTES:: T0XiCiNK is proud to present the first The Green Hornet R5, in 5.1 using our LiNE and genuine russian\nsurround channels. Enjoy\n\nNote: ~T0XiC-iNK Merge is complete, we are now T0XiCiNK~\n\n::Why Complain? Whats Free Is Free::\n\n::We are always looking for friends with unreleased DVD\\'s, Screeners, R5\\'s, Audio, Cams, Silvers,\n...and any other good sources you may have to offer - \n..contact us: &lt;a class=&quot;__cf_email__&quot; href=&quot;/cdn-cgi/l/email-protection&quot; data-cfemail=&quot;dca8eca4b5bfaeb9b0b9bdafb9af9cb4a9afb4b1bdb5b0f2bfb3b1&quot;&gt;[email&amp;#160;protected]&lt;/a&gt;&lt;script cf-hash='f9e31' type=&quot;text/javascript&quot;&gt;\n/* &lt;![CDATA[ */!function(){try{var t=&quot;currentScript&quot;in document?document.currentScript:function(){for(var t=document.getElementsByTagName(&quot;script&quot;),e=t.length;e--;)if(t[e].getAttribute(&quot;cf-hash&quot;))return t[e]}();if(t&amp;&amp;t.previousSibling){var e,r,n,i,c=t.previousSibling,a=c.getAttribute(&quot;data-cfemail&quot;);if(a){for(e=&quot;&quot;,r=parseInt(a.substr(0,2),16),n=2;a.length-n;n+=2)i=parseInt(a.substr(n,2),16)^r,e+=String.fromCharCode(i);e=document.createTextNode(e),c.parentNode.replaceChild(e,c)}}}catch(u){}}();/* ]]&gt; */&lt;/script&gt; or &lt;a class=&quot;__cf_email__&quot; href=&quot;/cdn-cgi/l/email-protection&quot; data-cfemail=&quot;fb9f929c928f9a97d5929590bb97928d9ed5989496&quot;&gt;[email&amp;#160;protected]&lt;/a&gt;&lt;script cf-hash='f9e31' type=&quot;text/javascript&quot;&gt;\n/* &lt;![CDATA[ */!function(){try{var t=&quot;currentScript&quot;in document?document.currentScript:function(){for(var t=document.getElementsByTagName(&quot;script&quot;),e=t.length;e--;)if(t[e].getAttribute(&quot;cf-hash&quot;))return t[e]}();if(t&amp;&amp;t.previousSibling){var e,r,n,i,c=t.previousSibling,a=c.getAttribute(&quot;data-cfemail&quot;);if(a){for(e=&quot;&quot;,r=parseInt(a.substr(0,2),16),n=2;a.length-n;n+=2)i=parseInt(a.substr(n,2),16)^r,e+=String.fromCharCode(i);e=document.createTextNode(e),c.parentNode.replaceChild(e,c)}}}catch(u){}}();/* ]]&gt; */&lt;/script&gt;\n\n::::::::::::::::::::::::::::::::::::   Respect To   :::::::::::::::::::::::::::::::::::::\n::IMAGiNE,FLAWL3SS,Hive-CM8,DiGiTALiNK,Tranz,Vik,OneTwo,Joey,bob,Unevano &amp; our friends on utn and PA::\n                       \\&quot;and to all of you who support us, Thank-You\\&quot;\n\n\n[img]http://www.leetleech.org/images/83089936488943884828.png[/img]\n[img]http://www.leetleech.org/images/99956876827401878413.png[/img]\n[img]http://www.leetleech.org/images/42932037318210384964.png[/img]\n[img]http://www.leetleech.org/images/57522644804330626886.png[/img]\n[img]http://www.leetleech.org/images/07939463635103059421.png[/img]","torrent":{"xt":"urn:btih:cd8205495ae7cd7d3585f02f817bd6ca6580b1bf","amp;dn":"The+Green+Hornet+2011+R5+LiNE+AC3+XViD-T0XiCiNK+%28BX%29","amp;tr":["udp%3A%2F%2Ftracker.openbittorrent.com%3A80","udp%3A%2F%2Fopen.demonii.com%3A1337","udp%3A%2F%2Ftracker.coppersurfer.tk%3A6969","udp%3A%2F%2Fexodus.desync.com%3A6969"],"infoHash":"cd8205495ae7cd7d3585f02f817bd6ca6580b1bf","infoHashBuffer":{"type":"Buffer","data":[205,130,5,73,90,231,205,125,53,133,240,47,129,123,214,202,101,128,177,191]},"announce":[],"urlList":[]}}